<?xml version="1.0" encoding="UTF-8" standalone="no"?>
<!DOCTYPE svg PUBLIC "-//W3C//DTD SVG 1.1//EN"
 "http://www.w3.org/Graphics/SVG/1.1/DTD/svg11.dtd">
<!-- Generated by graphviz version 2.38.0 (20140413.2041)
 -->
<!-- Title: unnamed Pages: 1 -->
<svg width="1519pt" height="483pt"
 viewBox="0.00 0.00 1519.00 483.00" xmlns="http://www.w3.org/2000/svg" xmlns:xlink="http://www.w3.org/1999/xlink">
<g id="graph0" class="graph" transform="scale(1 1) rotate(0) translate(4 479)">
<title>unnamed</title>
<polygon fill="white" stroke="none" points="-4,4 -4,-479 1515,-479 1515,4 -4,4"/>
<!-- Node0xb76b5c8 -->
<g id="node1" class="node"><title>Node0xb76b5c8</title>
<polygon fill="none" stroke="black" points="347.5,-438.5 347.5,-474.5 451.5,-474.5 451.5,-438.5 347.5,-438.5"/>
<text text-anchor="middle" x="399.5" y="-452.8" font-family="Times,serif" font-size="14.00">CompoundStmt</text>
</g>
<!-- Node0xb76aec8 -->
<g id="node2" class="node"><title>Node0xb76aec8</title>
<polygon fill="none" stroke="black" points="196.5,-365.5 196.5,-401.5 264.5,-401.5 264.5,-365.5 196.5,-365.5"/>
<text text-anchor="middle" x="230.5" y="-379.8" font-family="Times,serif" font-size="14.00">DeclStmt</text>
</g>
<!-- Node0xb76b5c8&#45;&gt;Node0xb76aec8 -->
<g id="edge1" class="edge"><title>Node0xb76b5c8&#45;&gt;Node0xb76aec8</title>
<path fill="none" stroke="black" d="M359.02,-438.494C333.364,-427.715 300.196,-413.781 273.982,-402.768"/>
<polygon fill="black" stroke="black" points="275.241,-399.5 264.665,-398.854 272.529,-405.954 275.241,-399.5"/>
</g>
<!-- Node0xb76af70 -->
<g id="node3" class="node"><title>Node0xb76af70</title>
<polygon fill="none" stroke="black" points="282.5,-365.5 282.5,-401.5 350.5,-401.5 350.5,-365.5 282.5,-365.5"/>
<text text-anchor="middle" x="316.5" y="-379.8" font-family="Times,serif" font-size="14.00">DeclStmt</text>
</g>
<!-- Node0xb76b5c8&#45;&gt;Node0xb76af70 -->
<g id="edge2" class="edge"><title>Node0xb76b5c8&#45;&gt;Node0xb76af70</title>
<path fill="none" stroke="black" d="M379.408,-438.313C368.805,-429.243 355.635,-417.977 344.089,-408.1"/>
<polygon fill="black" stroke="black" points="346.281,-405.37 336.407,-401.529 341.731,-410.689 346.281,-405.37"/>
</g>
<!-- Node0xb76b238 -->
<g id="node4" class="node"><title>Node0xb76b238</title>
<polygon fill="none" stroke="black" points="368.5,-365.5 368.5,-401.5 430.5,-401.5 430.5,-365.5 368.5,-365.5"/>
<text text-anchor="middle" x="399.5" y="-379.8" font-family="Times,serif" font-size="14.00">ForStmt</text>
</g>
<!-- Node0xb76b5c8&#45;&gt;Node0xb76b238 -->
<g id="edge3" class="edge"><title>Node0xb76b5c8&#45;&gt;Node0xb76b238</title>
<path fill="none" stroke="black" d="M399.5,-438.313C399.5,-430.289 399.5,-420.547 399.5,-411.569"/>
<polygon fill="black" stroke="black" points="403,-411.529 399.5,-401.529 396,-411.529 403,-411.529"/>
</g>
<!-- Node0xb76b558 -->
<g id="node5" class="node"><title>Node0xb76b558</title>
<polygon fill="none" stroke="black" points="938.5,-365.5 938.5,-401.5 992.5,-401.5 992.5,-365.5 938.5,-365.5"/>
<text text-anchor="middle" x="965.5" y="-379.8" font-family="Times,serif" font-size="14.00">IfStmt</text>
</g>
<!-- Node0xb76b5c8&#45;&gt;Node0xb76b558 -->
<g id="edge4" class="edge"><title>Node0xb76b5c8&#45;&gt;Node0xb76b558</title>
<path fill="none" stroke="black" d="M451.733,-448.948C564.878,-434.755 830.293,-401.461 928.29,-389.168"/>
<polygon fill="black" stroke="black" points="928.833,-392.627 938.32,-387.91 927.962,-385.681 928.833,-392.627"/>
</g>
<!-- Node0xb76b5b0 -->
<g id="node6" class="node"><title>Node0xb76b5b0</title>
<polygon fill="none" stroke="black" points="1143.5,-365.5 1143.5,-401.5 1223.5,-401.5 1223.5,-365.5 1143.5,-365.5"/>
<text text-anchor="middle" x="1183.5" y="-379.8" font-family="Times,serif" font-size="14.00">ReturnStmt</text>
</g>
<!-- Node0xb76b5c8&#45;&gt;Node0xb76b5b0 -->
<g id="edge5" class="edge"><title>Node0xb76b5c8&#45;&gt;Node0xb76b5b0</title>
<path fill="none" stroke="black" d="M451.852,-450.976C556.362,-441.915 798.287,-420.799 1001.5,-402 1045.95,-397.888 1096.48,-393.013 1133,-389.454"/>
<polygon fill="black" stroke="black" points="1133.77,-392.896 1143.39,-388.441 1133.09,-385.929 1133.77,-392.896"/>
</g>
<!-- Node0xb76af50 -->
<g id="node7" class="node"><title>Node0xb76af50</title>
<polygon fill="none" stroke="black" points="35,-292.5 35,-328.5 126,-328.5 126,-292.5 35,-292.5"/>
<text text-anchor="middle" x="80.5" y="-306.8" font-family="Times,serif" font-size="14.00">IntegerLiteral</text>
</g>
<!-- Node0xb76af70&#45;&gt;Node0xb76af50 -->
<g id="edge6" class="edge"><title>Node0xb76af70&#45;&gt;Node0xb76af50</title>
<path fill="none" stroke="black" d="M282.384,-368.144C279.397,-367.031 276.406,-365.966 273.5,-365 216.286,-345.986 198.148,-346.51 135.993,-329.039"/>
<polygon fill="black" stroke="black" points="136.639,-325.584 126.062,-326.201 134.715,-332.314 136.639,-325.584"/>
</g>
<!-- Node0xb76b018 -->
<g id="node8" class="node"><title>Node0xb76b018</title>
<polygon fill="none" stroke="black" points="144.5,-292.5 144.5,-328.5 212.5,-328.5 212.5,-292.5 144.5,-292.5"/>
<text text-anchor="middle" x="178.5" y="-306.8" font-family="Times,serif" font-size="14.00">DeclStmt</text>
</g>
<!-- Node0xb76b238&#45;&gt;Node0xb76b018 -->
<g id="edge7" class="edge"><title>Node0xb76b238&#45;&gt;Node0xb76b018</title>
<path fill="none" stroke="black" d="M368.243,-368.27C365.311,-367.104 362.365,-365.993 359.5,-365 302.537,-345.247 283.505,-348.586 222.374,-329.052"/>
<polygon fill="black" stroke="black" points="223.209,-325.642 212.616,-325.856 221.03,-332.295 223.209,-325.642"/>
</g>
<!-- Node0xb76b090 -->
<g id="node9" class="node"><title>Node0xb76b090</title>
<polygon fill="none" stroke="black" points="231,-292.5 231,-328.5 332,-328.5 332,-292.5 231,-292.5"/>
<text text-anchor="middle" x="281.5" y="-306.8" font-family="Times,serif" font-size="14.00">BinaryOperator</text>
</g>
<!-- Node0xb76b238&#45;&gt;Node0xb76b090 -->
<g id="edge8" class="edge"><title>Node0xb76b238&#45;&gt;Node0xb76b090</title>
<path fill="none" stroke="black" d="M371.236,-365.494C355.443,-355.991 335.574,-344.036 318.549,-333.792"/>
<polygon fill="black" stroke="black" points="320.315,-330.77 309.942,-328.614 316.706,-336.768 320.315,-330.77"/>
</g>
<!-- Node0xb76b0e0 -->
<g id="node10" class="node"><title>Node0xb76b0e0</title>
<polygon fill="none" stroke="black" points="350.5,-292.5 350.5,-328.5 448.5,-328.5 448.5,-292.5 350.5,-292.5"/>
<text text-anchor="middle" x="399.5" y="-306.8" font-family="Times,serif" font-size="14.00">UnaryOperator</text>
</g>
<!-- Node0xb76b238&#45;&gt;Node0xb76b0e0 -->
<g id="edge9" class="edge"><title>Node0xb76b238&#45;&gt;Node0xb76b0e0</title>
<path fill="none" stroke="black" d="M399.5,-365.313C399.5,-357.289 399.5,-347.547 399.5,-338.569"/>
<polygon fill="black" stroke="black" points="403,-338.529 399.5,-328.529 396,-338.529 403,-338.529"/>
</g>
<!-- Node0xb76b210 -->
<g id="node11" class="node"><title>Node0xb76b210</title>
<polygon fill="none" stroke="black" points="467,-292.5 467,-328.5 568,-328.5 568,-292.5 467,-292.5"/>
<text text-anchor="middle" x="517.5" y="-306.8" font-family="Times,serif" font-size="14.00">BinaryOperator</text>
</g>
<!-- Node0xb76b238&#45;&gt;Node0xb76b210 -->
<g id="edge10" class="edge"><title>Node0xb76b238&#45;&gt;Node0xb76b210</title>
<path fill="none" stroke="black" d="M427.764,-365.494C443.557,-355.991 463.426,-344.036 480.451,-333.792"/>
<polygon fill="black" stroke="black" points="482.294,-336.768 489.058,-328.614 478.685,-330.77 482.294,-336.768"/>
</g>
<!-- Node0xb76b350 -->
<g id="node24" class="node"><title>Node0xb76b350</title>
<polygon fill="none" stroke="black" points="856,-292.5 856,-328.5 957,-328.5 957,-292.5 856,-292.5"/>
<text text-anchor="middle" x="906.5" y="-306.8" font-family="Times,serif" font-size="14.00">BinaryOperator</text>
</g>
<!-- Node0xb76b558&#45;&gt;Node0xb76b350 -->
<g id="edge23" class="edge"><title>Node0xb76b558&#45;&gt;Node0xb76b350</title>
<path fill="none" stroke="black" d="M951.218,-365.313C943.971,-356.592 935.036,-345.84 927.064,-336.246"/>
<polygon fill="black" stroke="black" points="929.734,-333.983 920.651,-328.529 924.35,-338.457 929.734,-333.983"/>
</g>
<!-- Node0xb76b440 -->
<g id="node25" class="node"><title>Node0xb76b440</title>
<polygon fill="none" stroke="black" points="975,-292.5 975,-328.5 1076,-328.5 1076,-292.5 975,-292.5"/>
<text text-anchor="middle" x="1025.5" y="-306.8" font-family="Times,serif" font-size="14.00">BinaryOperator</text>
</g>
<!-- Node0xb76b558&#45;&gt;Node0xb76b440 -->
<g id="edge24" class="edge"><title>Node0xb76b558&#45;&gt;Node0xb76b440</title>
<path fill="none" stroke="black" d="M980.024,-365.313C987.394,-356.592 996.48,-345.84 1004.59,-336.246"/>
<polygon fill="black" stroke="black" points="1007.33,-338.426 1011.11,-328.529 1001.98,-333.908 1007.33,-338.426"/>
</g>
<!-- Node0xb76b530 -->
<g id="node26" class="node"><title>Node0xb76b530</title>
<polygon fill="none" stroke="black" points="1151,-292.5 1151,-328.5 1252,-328.5 1252,-292.5 1151,-292.5"/>
<text text-anchor="middle" x="1201.5" y="-306.8" font-family="Times,serif" font-size="14.00">BinaryOperator</text>
</g>
<!-- Node0xb76b558&#45;&gt;Node0xb76b530 -->
<g id="edge25" class="edge"><title>Node0xb76b558&#45;&gt;Node0xb76b530</title>
<path fill="none" stroke="black" d="M992.572,-374.355C1028.59,-363.519 1093.29,-344.054 1141.18,-329.646"/>
<polygon fill="black" stroke="black" points="1142.26,-332.978 1150.83,-326.745 1140.24,-326.274 1142.26,-332.978"/>
</g>
<!-- Node0xb76b590 -->
<g id="node46" class="node"><title>Node0xb76b590</title>
<polygon fill="none" stroke="black" points="1270,-292.5 1270,-328.5 1361,-328.5 1361,-292.5 1270,-292.5"/>
<text text-anchor="middle" x="1315.5" y="-306.8" font-family="Times,serif" font-size="14.00">IntegerLiteral</text>
</g>
<!-- Node0xb76b5b0&#45;&gt;Node0xb76b590 -->
<g id="edge45" class="edge"><title>Node0xb76b5b0&#45;&gt;Node0xb76b590</title>
<path fill="none" stroke="black" d="M1215.12,-365.494C1233.03,-355.861 1255.62,-343.707 1274.84,-333.37"/>
<polygon fill="black" stroke="black" points="1276.53,-336.433 1283.68,-328.614 1273.22,-330.268 1276.53,-336.433"/>
</g>
<!-- Node0xb76aff8 -->
<g id="node12" class="node"><title>Node0xb76aff8</title>
<polygon fill="none" stroke="black" points="0,-219.5 0,-255.5 91,-255.5 91,-219.5 0,-219.5"/>
<text text-anchor="middle" x="45.5" y="-233.8" font-family="Times,serif" font-size="14.00">IntegerLiteral</text>
</g>
<!-- Node0xb76b018&#45;&gt;Node0xb76aff8 -->
<g id="edge11" class="edge"><title>Node0xb76b018&#45;&gt;Node0xb76aff8</title>
<path fill="none" stroke="black" d="M146.643,-292.494C128.598,-282.861 105.831,-270.707 86.4687,-260.37"/>
<polygon fill="black" stroke="black" points="88.0278,-257.235 77.5578,-255.614 84.7313,-263.411 88.0278,-257.235"/>
</g>
<!-- Node0xb76b078 -->
<g id="node13" class="node"><title>Node0xb76b078</title>
<polygon fill="none" stroke="black" points="109.5,-219.5 109.5,-255.5 219.5,-255.5 219.5,-219.5 109.5,-219.5"/>
<text text-anchor="middle" x="164.5" y="-233.8" font-family="Times,serif" font-size="14.00">ImplicitCastExpr</text>
</g>
<!-- Node0xb76b090&#45;&gt;Node0xb76b078 -->
<g id="edge12" class="edge"><title>Node0xb76b090&#45;&gt;Node0xb76b078</title>
<path fill="none" stroke="black" d="M253.476,-292.494C237.96,-283.079 218.477,-271.255 201.701,-261.075"/>
<polygon fill="black" stroke="black" points="203.066,-257.809 192.701,-255.614 199.435,-263.794 203.066,-257.809"/>
</g>
<!-- Node0xb76b058 -->
<g id="node14" class="node"><title>Node0xb76b058</title>
<polygon fill="none" stroke="black" points="238,-219.5 238,-255.5 329,-255.5 329,-219.5 238,-219.5"/>
<text text-anchor="middle" x="283.5" y="-233.8" font-family="Times,serif" font-size="14.00">IntegerLiteral</text>
</g>
<!-- Node0xb76b090&#45;&gt;Node0xb76b058 -->
<g id="edge13" class="edge"><title>Node0xb76b090&#45;&gt;Node0xb76b058</title>
<path fill="none" stroke="black" d="M281.984,-292.313C282.21,-284.289 282.485,-274.547 282.737,-265.569"/>
<polygon fill="black" stroke="black" points="286.237,-265.623 283.02,-255.529 279.24,-265.426 286.237,-265.623"/>
</g>
<!-- Node0xb76b0b8 -->
<g id="node16" class="node"><title>Node0xb76b0b8</title>
<polygon fill="none" stroke="black" points="347.5,-219.5 347.5,-255.5 435.5,-255.5 435.5,-219.5 347.5,-219.5"/>
<text text-anchor="middle" x="391.5" y="-233.8" font-family="Times,serif" font-size="14.00">DeclRefExpr</text>
</g>
<!-- Node0xb76b0e0&#45;&gt;Node0xb76b0b8 -->
<g id="edge15" class="edge"><title>Node0xb76b0e0&#45;&gt;Node0xb76b0b8</title>
<path fill="none" stroke="black" d="M397.563,-292.313C396.659,-284.289 395.562,-274.547 394.55,-265.569"/>
<polygon fill="black" stroke="black" points="398.016,-265.074 393.419,-255.529 391.061,-265.858 398.016,-265.074"/>
</g>
<!-- Node0xb76b1a8 -->
<g id="node17" class="node"><title>Node0xb76b1a8</title>
<polygon fill="none" stroke="black" points="453,-219.5 453,-255.5 578,-255.5 578,-219.5 453,-219.5"/>
<text text-anchor="middle" x="515.5" y="-233.8" font-family="Times,serif" font-size="14.00">ArraySubscriptExpr</text>
</g>
<!-- Node0xb76b210&#45;&gt;Node0xb76b1a8 -->
<g id="edge16" class="edge"><title>Node0xb76b210&#45;&gt;Node0xb76b1a8</title>
<path fill="none" stroke="black" d="M517.016,-292.313C516.79,-284.289 516.515,-274.547 516.263,-265.569"/>
<polygon fill="black" stroke="black" points="519.76,-265.426 515.98,-255.529 512.763,-265.623 519.76,-265.426"/>
</g>
<!-- Node0xb76b1f8 -->
<g id="node18" class="node"><title>Node0xb76b1f8</title>
<polygon fill="none" stroke="black" points="596.5,-219.5 596.5,-255.5 706.5,-255.5 706.5,-219.5 596.5,-219.5"/>
<text text-anchor="middle" x="651.5" y="-233.8" font-family="Times,serif" font-size="14.00">ImplicitCastExpr</text>
</g>
<!-- Node0xb76b210&#45;&gt;Node0xb76b1f8 -->
<g id="edge17" class="edge"><title>Node0xb76b210&#45;&gt;Node0xb76b1f8</title>
<path fill="none" stroke="black" d="M549.596,-292.494C567.777,-282.861 590.715,-270.707 610.223,-260.37"/>
<polygon fill="black" stroke="black" points="612.004,-263.388 619.201,-255.614 608.726,-257.203 612.004,-263.388"/>
</g>
<!-- Node0xb76b030 -->
<g id="node15" class="node"><title>Node0xb76b030</title>
<polygon fill="none" stroke="black" points="120.5,-146.5 120.5,-182.5 208.5,-182.5 208.5,-146.5 120.5,-146.5"/>
<text text-anchor="middle" x="164.5" y="-160.8" font-family="Times,serif" font-size="14.00">DeclRefExpr</text>
</g>
<!-- Node0xb76b078&#45;&gt;Node0xb76b030 -->
<g id="edge14" class="edge"><title>Node0xb76b078&#45;&gt;Node0xb76b030</title>
<path fill="none" stroke="black" d="M164.5,-219.313C164.5,-211.289 164.5,-201.547 164.5,-192.569"/>
<polygon fill="black" stroke="black" points="168,-192.529 164.5,-182.529 161,-192.529 168,-192.529"/>
</g>
<!-- Node0xb76b178 -->
<g id="node19" class="node"><title>Node0xb76b178</title>
<polygon fill="none" stroke="black" points="341.5,-146.5 341.5,-182.5 451.5,-182.5 451.5,-146.5 341.5,-146.5"/>
<text text-anchor="middle" x="396.5" y="-160.8" font-family="Times,serif" font-size="14.00">ImplicitCastExpr</text>
</g>
<!-- Node0xb76b1a8&#45;&gt;Node0xb76b178 -->
<g id="edge18" class="edge"><title>Node0xb76b1a8&#45;&gt;Node0xb76b178</title>
<path fill="none" stroke="black" d="M486.997,-219.494C471.07,-209.991 451.033,-198.036 433.863,-187.792"/>
<polygon fill="black" stroke="black" points="435.564,-184.732 425.183,-182.614 431.978,-190.743 435.564,-184.732"/>
</g>
<!-- Node0xb76b190 -->
<g id="node20" class="node"><title>Node0xb76b190</title>
<polygon fill="none" stroke="black" points="469.5,-146.5 469.5,-182.5 579.5,-182.5 579.5,-146.5 469.5,-146.5"/>
<text text-anchor="middle" x="524.5" y="-160.8" font-family="Times,serif" font-size="14.00">ImplicitCastExpr</text>
</g>
<!-- Node0xb76b1a8&#45;&gt;Node0xb76b190 -->
<g id="edge19" class="edge"><title>Node0xb76b1a8&#45;&gt;Node0xb76b190</title>
<path fill="none" stroke="black" d="M517.679,-219.313C518.696,-211.289 519.931,-201.547 521.069,-192.569"/>
<polygon fill="black" stroke="black" points="524.556,-192.89 522.341,-182.529 517.612,-192.009 524.556,-192.89"/>
</g>
<!-- Node0xb76b1d0 -->
<g id="node23" class="node"><title>Node0xb76b1d0</title>
<polygon fill="none" stroke="black" points="607.5,-146.5 607.5,-182.5 695.5,-182.5 695.5,-146.5 607.5,-146.5"/>
<text text-anchor="middle" x="651.5" y="-160.8" font-family="Times,serif" font-size="14.00">DeclRefExpr</text>
</g>
<!-- Node0xb76b1f8&#45;&gt;Node0xb76b1d0 -->
<g id="edge22" class="edge"><title>Node0xb76b1f8&#45;&gt;Node0xb76b1d0</title>
<path fill="none" stroke="black" d="M651.5,-219.313C651.5,-211.289 651.5,-201.547 651.5,-192.569"/>
<polygon fill="black" stroke="black" points="655,-192.529 651.5,-182.529 648,-192.529 655,-192.529"/>
</g>
<!-- Node0xb76b100 -->
<g id="node21" class="node"><title>Node0xb76b100</title>
<polygon fill="none" stroke="black" points="352.5,-73.5 352.5,-109.5 440.5,-109.5 440.5,-73.5 352.5,-73.5"/>
<text text-anchor="middle" x="396.5" y="-87.8" font-family="Times,serif" font-size="14.00">DeclRefExpr</text>
</g>
<!-- Node0xb76b178&#45;&gt;Node0xb76b100 -->
<g id="edge20" class="edge"><title>Node0xb76b178&#45;&gt;Node0xb76b100</title>
<path fill="none" stroke="black" d="M396.5,-146.313C396.5,-138.289 396.5,-128.547 396.5,-119.569"/>
<polygon fill="black" stroke="black" points="400,-119.529 396.5,-109.529 393,-119.529 400,-119.529"/>
</g>
<!-- Node0xb76b128 -->
<g id="node22" class="node"><title>Node0xb76b128</title>
<polygon fill="none" stroke="black" points="480.5,-73.5 480.5,-109.5 568.5,-109.5 568.5,-73.5 480.5,-73.5"/>
<text text-anchor="middle" x="524.5" y="-87.8" font-family="Times,serif" font-size="14.00">DeclRefExpr</text>
</g>
<!-- Node0xb76b190&#45;&gt;Node0xb76b128 -->
<g id="edge21" class="edge"><title>Node0xb76b190&#45;&gt;Node0xb76b128</title>
<path fill="none" stroke="black" d="M524.5,-146.313C524.5,-138.289 524.5,-128.547 524.5,-119.569"/>
<polygon fill="black" stroke="black" points="528,-119.529 524.5,-109.529 521,-119.529 528,-119.529"/>
</g>
<!-- Node0xb76b320 -->
<g id="node27" class="node"><title>Node0xb76b320</title>
<polygon fill="none" stroke="black" points="724.5,-219.5 724.5,-255.5 834.5,-255.5 834.5,-219.5 724.5,-219.5"/>
<text text-anchor="middle" x="779.5" y="-233.8" font-family="Times,serif" font-size="14.00">ImplicitCastExpr</text>
</g>
<!-- Node0xb76b350&#45;&gt;Node0xb76b320 -->
<g id="edge26" class="edge"><title>Node0xb76b350&#45;&gt;Node0xb76b320</title>
<path fill="none" stroke="black" d="M876.08,-292.494C858.927,-282.904 837.306,-270.817 818.872,-260.511"/>
<polygon fill="black" stroke="black" points="820.548,-257.438 810.112,-255.614 817.132,-263.548 820.548,-257.438"/>
</g>
<!-- Node0xb76b338 -->
<g id="node28" class="node"><title>Node0xb76b338</title>
<polygon fill="none" stroke="black" points="852.5,-219.5 852.5,-255.5 962.5,-255.5 962.5,-219.5 852.5,-219.5"/>
<text text-anchor="middle" x="907.5" y="-233.8" font-family="Times,serif" font-size="14.00">ImplicitCastExpr</text>
</g>
<!-- Node0xb76b350&#45;&gt;Node0xb76b338 -->
<g id="edge27" class="edge"><title>Node0xb76b350&#45;&gt;Node0xb76b338</title>
<path fill="none" stroke="black" d="M906.742,-292.313C906.855,-284.289 906.992,-274.547 907.119,-265.569"/>
<polygon fill="black" stroke="black" points="910.619,-265.577 907.26,-255.529 903.62,-265.479 910.619,-265.577"/>
</g>
<!-- Node0xb76b378 -->
<g id="node34" class="node"><title>Node0xb76b378</title>
<polygon fill="none" stroke="black" points="980.5,-219.5 980.5,-255.5 1068.5,-255.5 1068.5,-219.5 980.5,-219.5"/>
<text text-anchor="middle" x="1024.5" y="-233.8" font-family="Times,serif" font-size="14.00">DeclRefExpr</text>
</g>
<!-- Node0xb76b440&#45;&gt;Node0xb76b378 -->
<g id="edge33" class="edge"><title>Node0xb76b440&#45;&gt;Node0xb76b378</title>
<path fill="none" stroke="black" d="M1025.26,-292.313C1025.14,-284.289 1025.01,-274.547 1024.88,-265.569"/>
<polygon fill="black" stroke="black" points="1028.38,-265.479 1024.74,-255.529 1021.38,-265.577 1028.38,-265.479"/>
</g>
<!-- Node0xb76b428 -->
<g id="node35" class="node"><title>Node0xb76b428</title>
<polygon fill="none" stroke="black" points="1086.5,-219.5 1086.5,-255.5 1196.5,-255.5 1196.5,-219.5 1086.5,-219.5"/>
<text text-anchor="middle" x="1141.5" y="-233.8" font-family="Times,serif" font-size="14.00">ImplicitCastExpr</text>
</g>
<!-- Node0xb76b440&#45;&gt;Node0xb76b428 -->
<g id="edge34" class="edge"><title>Node0xb76b440&#45;&gt;Node0xb76b428</title>
<path fill="none" stroke="black" d="M1053.28,-292.494C1068.67,-283.079 1087.98,-271.255 1104.62,-261.075"/>
<polygon fill="black" stroke="black" points="1106.84,-263.819 1113.54,-255.614 1103.18,-257.849 1106.84,-263.819"/>
</g>
<!-- Node0xb76b468 -->
<g id="node40" class="node"><title>Node0xb76b468</title>
<polygon fill="none" stroke="black" points="1214.5,-219.5 1214.5,-255.5 1302.5,-255.5 1302.5,-219.5 1214.5,-219.5"/>
<text text-anchor="middle" x="1258.5" y="-233.8" font-family="Times,serif" font-size="14.00">DeclRefExpr</text>
</g>
<!-- Node0xb76b530&#45;&gt;Node0xb76b468 -->
<g id="edge39" class="edge"><title>Node0xb76b530&#45;&gt;Node0xb76b468</title>
<path fill="none" stroke="black" d="M1215.3,-292.313C1222.23,-283.679 1230.76,-273.055 1238.4,-263.534"/>
<polygon fill="black" stroke="black" points="1241.3,-265.518 1244.83,-255.529 1235.84,-261.136 1241.3,-265.518"/>
</g>
<!-- Node0xb76b518 -->
<g id="node41" class="node"><title>Node0xb76b518</title>
<polygon fill="none" stroke="black" points="1320.5,-219.5 1320.5,-255.5 1430.5,-255.5 1430.5,-219.5 1320.5,-219.5"/>
<text text-anchor="middle" x="1375.5" y="-233.8" font-family="Times,serif" font-size="14.00">ImplicitCastExpr</text>
</g>
<!-- Node0xb76b530&#45;&gt;Node0xb76b518 -->
<g id="edge40" class="edge"><title>Node0xb76b530&#45;&gt;Node0xb76b518</title>
<path fill="none" stroke="black" d="M1243.18,-292.494C1267.53,-282.555 1298.46,-269.934 1324.3,-259.394"/>
<polygon fill="black" stroke="black" points="1325.62,-262.632 1333.56,-255.614 1322.98,-256.151 1325.62,-262.632"/>
</g>
<!-- Node0xb76b2d0 -->
<g id="node29" class="node"><title>Node0xb76b2d0</title>
<polygon fill="none" stroke="black" points="717,-146.5 717,-182.5 842,-182.5 842,-146.5 717,-146.5"/>
<text text-anchor="middle" x="779.5" y="-160.8" font-family="Times,serif" font-size="14.00">ArraySubscriptExpr</text>
</g>
<!-- Node0xb76b320&#45;&gt;Node0xb76b2d0 -->
<g id="edge28" class="edge"><title>Node0xb76b320&#45;&gt;Node0xb76b2d0</title>
<path fill="none" stroke="black" d="M779.5,-219.313C779.5,-211.289 779.5,-201.547 779.5,-192.569"/>
<polygon fill="black" stroke="black" points="783,-192.529 779.5,-182.529 776,-192.529 783,-192.529"/>
</g>
<!-- Node0xb76b2f8 -->
<g id="node33" class="node"><title>Node0xb76b2f8</title>
<polygon fill="none" stroke="black" points="863.5,-146.5 863.5,-182.5 951.5,-182.5 951.5,-146.5 863.5,-146.5"/>
<text text-anchor="middle" x="907.5" y="-160.8" font-family="Times,serif" font-size="14.00">DeclRefExpr</text>
</g>
<!-- Node0xb76b338&#45;&gt;Node0xb76b2f8 -->
<g id="edge32" class="edge"><title>Node0xb76b338&#45;&gt;Node0xb76b2f8</title>
<path fill="none" stroke="black" d="M907.5,-219.313C907.5,-211.289 907.5,-201.547 907.5,-192.569"/>
<polygon fill="black" stroke="black" points="911,-192.529 907.5,-182.529 904,-192.529 911,-192.529"/>
</g>
<!-- Node0xb76b2b8 -->
<g id="node30" class="node"><title>Node0xb76b2b8</title>
<polygon fill="none" stroke="black" points="665.5,-73.5 665.5,-109.5 775.5,-109.5 775.5,-73.5 665.5,-73.5"/>
<text text-anchor="middle" x="720.5" y="-87.8" font-family="Times,serif" font-size="14.00">ImplicitCastExpr</text>
</g>
<!-- Node0xb76b2d0&#45;&gt;Node0xb76b2b8 -->
<g id="edge29" class="edge"><title>Node0xb76b2d0&#45;&gt;Node0xb76b2b8</title>
<path fill="none" stroke="black" d="M765.218,-146.313C757.971,-137.592 749.036,-126.84 741.064,-117.246"/>
<polygon fill="black" stroke="black" points="743.734,-114.983 734.651,-109.529 738.35,-119.457 743.734,-114.983"/>
</g>
<!-- Node0xb76b298 -->
<g id="node31" class="node"><title>Node0xb76b298</title>
<polygon fill="none" stroke="black" points="794,-73.5 794,-109.5 885,-109.5 885,-73.5 794,-73.5"/>
<text text-anchor="middle" x="839.5" y="-87.8" font-family="Times,serif" font-size="14.00">IntegerLiteral</text>
</g>
<!-- Node0xb76b2d0&#45;&gt;Node0xb76b298 -->
<g id="edge30" class="edge"><title>Node0xb76b2d0&#45;&gt;Node0xb76b298</title>
<path fill="none" stroke="black" d="M794.024,-146.313C801.394,-137.592 810.48,-126.84 818.588,-117.246"/>
<polygon fill="black" stroke="black" points="821.328,-119.426 825.109,-109.529 815.982,-114.908 821.328,-119.426"/>
</g>
<!-- Node0xb76b270 -->
<g id="node32" class="node"><title>Node0xb76b270</title>
<polygon fill="none" stroke="black" points="676.5,-0.5 676.5,-36.5 764.5,-36.5 764.5,-0.5 676.5,-0.5"/>
<text text-anchor="middle" x="720.5" y="-14.8" font-family="Times,serif" font-size="14.00">DeclRefExpr</text>
</g>
<!-- Node0xb76b2b8&#45;&gt;Node0xb76b270 -->
<g id="edge31" class="edge"><title>Node0xb76b2b8&#45;&gt;Node0xb76b270</title>
<path fill="none" stroke="black" d="M720.5,-73.3129C720.5,-65.2895 720.5,-55.5475 720.5,-46.5691"/>
<polygon fill="black" stroke="black" points="724,-46.5288 720.5,-36.5288 717,-46.5289 724,-46.5288"/>
</g>
<!-- Node0xb76b400 -->
<g id="node36" class="node"><title>Node0xb76b400</title>
<polygon fill="none" stroke="black" points="1079,-146.5 1079,-182.5 1204,-182.5 1204,-146.5 1079,-146.5"/>
<text text-anchor="middle" x="1141.5" y="-160.8" font-family="Times,serif" font-size="14.00">ArraySubscriptExpr</text>
</g>
<!-- Node0xb76b428&#45;&gt;Node0xb76b400 -->
<g id="edge35" class="edge"><title>Node0xb76b428&#45;&gt;Node0xb76b400</title>
<path fill="none" stroke="black" d="M1141.5,-219.313C1141.5,-211.289 1141.5,-201.547 1141.5,-192.569"/>
<polygon fill="black" stroke="black" points="1145,-192.529 1141.5,-182.529 1138,-192.529 1145,-192.529"/>
</g>
<!-- Node0xb76b3e8 -->
<g id="node37" class="node"><title>Node0xb76b3e8</title>
<polygon fill="none" stroke="black" points="996.5,-73.5 996.5,-109.5 1106.5,-109.5 1106.5,-73.5 996.5,-73.5"/>
<text text-anchor="middle" x="1051.5" y="-87.8" font-family="Times,serif" font-size="14.00">ImplicitCastExpr</text>
</g>
<!-- Node0xb76b400&#45;&gt;Node0xb76b3e8 -->
<g id="edge36" class="edge"><title>Node0xb76b400&#45;&gt;Node0xb76b3e8</title>
<path fill="none" stroke="black" d="M1119.71,-146.313C1108.11,-137.156 1093.66,-125.76 1081.06,-115.816"/>
<polygon fill="black" stroke="black" points="1083.1,-112.975 1073.09,-109.529 1078.77,-118.47 1083.1,-112.975"/>
</g>
<!-- Node0xb76b3c8 -->
<g id="node38" class="node"><title>Node0xb76b3c8</title>
<polygon fill="none" stroke="black" points="1125,-73.5 1125,-109.5 1216,-109.5 1216,-73.5 1125,-73.5"/>
<text text-anchor="middle" x="1170.5" y="-87.8" font-family="Times,serif" font-size="14.00">IntegerLiteral</text>
</g>
<!-- Node0xb76b400&#45;&gt;Node0xb76b3c8 -->
<g id="edge37" class="edge"><title>Node0xb76b400&#45;&gt;Node0xb76b3c8</title>
<path fill="none" stroke="black" d="M1148.52,-146.313C1151.87,-138.115 1155.95,-128.123 1159.68,-118.985"/>
<polygon fill="black" stroke="black" points="1163,-120.11 1163.54,-109.529 1156.52,-117.463 1163,-120.11"/>
</g>
<!-- Node0xb76b3a0 -->
<g id="node39" class="node"><title>Node0xb76b3a0</title>
<polygon fill="none" stroke="black" points="1007.5,-0.5 1007.5,-36.5 1095.5,-36.5 1095.5,-0.5 1007.5,-0.5"/>
<text text-anchor="middle" x="1051.5" y="-14.8" font-family="Times,serif" font-size="14.00">DeclRefExpr</text>
</g>
<!-- Node0xb76b3e8&#45;&gt;Node0xb76b3a0 -->
<g id="edge38" class="edge"><title>Node0xb76b3e8&#45;&gt;Node0xb76b3a0</title>
<path fill="none" stroke="black" d="M1051.5,-73.3129C1051.5,-65.2895 1051.5,-55.5475 1051.5,-46.5691"/>
<polygon fill="black" stroke="black" points="1055,-46.5288 1051.5,-36.5288 1048,-46.5289 1055,-46.5288"/>
</g>
<!-- Node0xb76b4f0 -->
<g id="node42" class="node"><title>Node0xb76b4f0</title>
<polygon fill="none" stroke="black" points="1313,-146.5 1313,-182.5 1438,-182.5 1438,-146.5 1313,-146.5"/>
<text text-anchor="middle" x="1375.5" y="-160.8" font-family="Times,serif" font-size="14.00">ArraySubscriptExpr</text>
</g>
<!-- Node0xb76b518&#45;&gt;Node0xb76b4f0 -->
<g id="edge41" class="edge"><title>Node0xb76b518&#45;&gt;Node0xb76b4f0</title>
<path fill="none" stroke="black" d="M1375.5,-219.313C1375.5,-211.289 1375.5,-201.547 1375.5,-192.569"/>
<polygon fill="black" stroke="black" points="1379,-192.529 1375.5,-182.529 1372,-192.529 1379,-192.529"/>
</g>
<!-- Node0xb76b4d8 -->
<g id="node43" class="node"><title>Node0xb76b4d8</title>
<polygon fill="none" stroke="black" points="1291.5,-73.5 1291.5,-109.5 1401.5,-109.5 1401.5,-73.5 1291.5,-73.5"/>
<text text-anchor="middle" x="1346.5" y="-87.8" font-family="Times,serif" font-size="14.00">ImplicitCastExpr</text>
</g>
<!-- Node0xb76b4f0&#45;&gt;Node0xb76b4d8 -->
<g id="edge42" class="edge"><title>Node0xb76b4f0&#45;&gt;Node0xb76b4d8</title>
<path fill="none" stroke="black" d="M1368.48,-146.313C1365.13,-138.115 1361.05,-128.123 1357.32,-118.985"/>
<polygon fill="black" stroke="black" points="1360.48,-117.463 1353.46,-109.529 1354,-120.11 1360.48,-117.463"/>
</g>
<!-- Node0xb76b4b8 -->
<g id="node44" class="node"><title>Node0xb76b4b8</title>
<polygon fill="none" stroke="black" points="1420,-73.5 1420,-109.5 1511,-109.5 1511,-73.5 1420,-73.5"/>
<text text-anchor="middle" x="1465.5" y="-87.8" font-family="Times,serif" font-size="14.00">IntegerLiteral</text>
</g>
<!-- Node0xb76b4f0&#45;&gt;Node0xb76b4b8 -->
<g id="edge43" class="edge"><title>Node0xb76b4f0&#45;&gt;Node0xb76b4b8</title>
<path fill="none" stroke="black" d="M1397.29,-146.313C1408.89,-137.156 1423.34,-125.76 1435.94,-115.816"/>
<polygon fill="black" stroke="black" points="1438.23,-118.47 1443.91,-109.529 1433.9,-112.975 1438.23,-118.47"/>
</g>
<!-- Node0xb76b490 -->
<g id="node45" class="node"><title>Node0xb76b490</title>
<polygon fill="none" stroke="black" points="1302.5,-0.5 1302.5,-36.5 1390.5,-36.5 1390.5,-0.5 1302.5,-0.5"/>
<text text-anchor="middle" x="1346.5" y="-14.8" font-family="Times,serif" font-size="14.00">DeclRefExpr</text>
</g>
<!-- Node0xb76b4d8&#45;&gt;Node0xb76b490 -->
<g id="edge44" class="edge"><title>Node0xb76b4d8&#45;&gt;Node0xb76b490</title>
<path fill="none" stroke="black" d="M1346.5,-73.3129C1346.5,-65.2895 1346.5,-55.5475 1346.5,-46.5691"/>
<polygon fill="black" stroke="black" points="1350,-46.5288 1346.5,-36.5288 1343,-46.5289 1350,-46.5288"/>
</g>
</g>
</svg>
