<?xml version="1.0" encoding="UTF-8" standalone="no"?>
<!DOCTYPE svg PUBLIC "-//W3C//DTD SVG 1.1//EN"
 "http://www.w3.org/Graphics/SVG/1.1/DTD/svg11.dtd">
<!-- Generated by graphviz version 2.38.0 (20140413.2041)
 -->
<!-- Title: unnamed Pages: 1 -->
<svg width="972pt" height="838pt"
 viewBox="0.00 0.00 972.31 838.00" xmlns="http://www.w3.org/2000/svg" xmlns:xlink="http://www.w3.org/1999/xlink">
<g id="graph0" class="graph" transform="scale(1 1) rotate(0) translate(4 834)">
<title>unnamed</title>
<polygon fill="white" stroke="none" points="-4,4 -4,-834 968.313,-834 968.313,4 -4,4"/>
<!-- Node0xb3733c0 -->
<g id="node1" class="node"><title>Node0xb3733c0</title>
<polygon fill="none" stroke="black" points="576.813,-0.5 576.813,-36.5 661.813,-36.5 661.813,-0.5 576.813,-0.5"/>
<text text-anchor="start" x="584.813" y="-14.8" font-family="Times,serif" font-size="14.00">[B0 (EXIT)]</text>
</g>
<!-- Node0xb373498 -->
<g id="node2" class="node"><title>Node0xb373498</title>
<polygon fill="none" stroke="black" points="564.313,-73.5 564.313,-126.5 674.313,-126.5 674.313,-73.5 564.313,-73.5"/>
<text text-anchor="start" x="572.313" y="-111.3" font-family="Times,serif" font-size="14.00">[B1]</text>
<text text-anchor="start" x="572.313" y="-96.3" font-family="Times,serif" font-size="14.00"> 1: 0</text>
<text text-anchor="start" x="572.313" y="-81.3" font-family="Times,serif" font-size="14.00"> 2: return [B1.1];</text>
</g>
<!-- Node0xb373498&#45;&gt;Node0xb3733c0 -->
<g id="edge1" class="edge"><title>Node0xb373498&#45;&gt;Node0xb3733c0</title>
<path fill="none" stroke="black" d="M619.313,-73.4081C619.313,-64.9823 619.313,-55.5803 619.313,-47.0174"/>
<polygon fill="black" stroke="black" points="622.814,-46.7564 619.313,-36.7564 615.814,-46.7565 622.814,-46.7564"/>
</g>
<!-- Node0xb373570 -->
<g id="node3" class="node"><title>Node0xb373570</title>
<polygon fill="none" stroke="black" points="274.313,-163.5 274.313,-291.5 610.313,-291.5 610.313,-163.5 274.313,-163.5"/>
<text text-anchor="start" x="282.313" y="-276.3" font-family="Times,serif" font-size="14.00">[B2]</text>
<text text-anchor="start" x="282.313" y="-261.3" font-family="Times,serif" font-size="14.00"> 1: a</text>
<text text-anchor="start" x="282.313" y="-246.3" font-family="Times,serif" font-size="14.00"> 2: [B2.1] (ImplicitCastExpr, ArrayToPointerDecay, int *)</text>
<text text-anchor="start" x="282.313" y="-231.3" font-family="Times,serif" font-size="14.00"> 3: 2</text>
<text text-anchor="start" x="282.313" y="-216.3" font-family="Times,serif" font-size="14.00"> 4: [B2.2][[B2.3]]</text>
<text text-anchor="start" x="282.313" y="-201.3" font-family="Times,serif" font-size="14.00"> 5: [B2.4] (ImplicitCastExpr, LValueToRValue, int)</text>
<text text-anchor="start" x="282.313" y="-186.3" font-family="Times,serif" font-size="14.00"> 6: max</text>
<text text-anchor="start" x="282.313" y="-171.3" font-family="Times,serif" font-size="14.00"> 7: [B2.6] = [B2.5]</text>
</g>
<!-- Node0xb373570&#45;&gt;Node0xb373498 -->
<g id="edge2" class="edge"><title>Node0xb373570&#45;&gt;Node0xb373498</title>
<path fill="none" stroke="black" d="M531.332,-163.382C546.444,-152.667 561.536,-141.966 574.846,-132.529"/>
<polygon fill="black" stroke="black" points="577.183,-135.162 583.317,-126.523 573.135,-129.452 577.183,-135.162"/>
</g>
<!-- Node0xb3736c8 -->
<g id="node4" class="node"><title>Node0xb3736c8</title>
<polygon fill="none" stroke="black" points="628.313,-163.5 628.313,-291.5 964.313,-291.5 964.313,-163.5 628.313,-163.5"/>
<text text-anchor="start" x="636.313" y="-276.3" font-family="Times,serif" font-size="14.00">[B3]</text>
<text text-anchor="start" x="636.313" y="-261.3" font-family="Times,serif" font-size="14.00"> 1: a</text>
<text text-anchor="start" x="636.313" y="-246.3" font-family="Times,serif" font-size="14.00"> 2: [B3.1] (ImplicitCastExpr, ArrayToPointerDecay, int *)</text>
<text text-anchor="start" x="636.313" y="-231.3" font-family="Times,serif" font-size="14.00"> 3: 3</text>
<text text-anchor="start" x="636.313" y="-216.3" font-family="Times,serif" font-size="14.00"> 4: [B3.2][[B3.3]]</text>
<text text-anchor="start" x="636.313" y="-201.3" font-family="Times,serif" font-size="14.00"> 5: [B3.4] (ImplicitCastExpr, LValueToRValue, int)</text>
<text text-anchor="start" x="636.313" y="-186.3" font-family="Times,serif" font-size="14.00"> 6: max</text>
<text text-anchor="start" x="636.313" y="-171.3" font-family="Times,serif" font-size="14.00"> 7: [B3.6] = [B3.5]</text>
</g>
<!-- Node0xb3736c8&#45;&gt;Node0xb373498 -->
<g id="edge3" class="edge"><title>Node0xb3736c8&#45;&gt;Node0xb373498</title>
<path fill="none" stroke="black" d="M707.295,-163.382C692.183,-152.667 677.09,-141.966 663.781,-132.529"/>
<polygon fill="black" stroke="black" points="665.492,-129.452 655.31,-126.523 661.443,-135.162 665.492,-129.452"/>
</g>
<!-- Node0xb373840 -->
<g id="node5" class="node"><title>Node0xb373840</title>
<polygon fill="none" stroke="black" points="386.313,-328.5 386.313,-486.5 722.313,-486.5 722.313,-328.5 386.313,-328.5"/>
<text text-anchor="start" x="394.313" y="-471.3" font-family="Times,serif" font-size="14.00">[B4]</text>
<text text-anchor="start" x="394.313" y="-456.3" font-family="Times,serif" font-size="14.00"> 1: a</text>
<text text-anchor="start" x="394.313" y="-441.3" font-family="Times,serif" font-size="14.00"> 2: [B4.1] (ImplicitCastExpr, ArrayToPointerDecay, int *)</text>
<text text-anchor="start" x="394.313" y="-426.3" font-family="Times,serif" font-size="14.00"> 3: 3</text>
<text text-anchor="start" x="394.313" y="-411.3" font-family="Times,serif" font-size="14.00"> 4: [B4.2][[B4.3]]</text>
<text text-anchor="start" x="394.313" y="-396.3" font-family="Times,serif" font-size="14.00"> 5: [B4.4] (ImplicitCastExpr, LValueToRValue, int)</text>
<text text-anchor="start" x="394.313" y="-381.3" font-family="Times,serif" font-size="14.00"> 6: max</text>
<text text-anchor="start" x="394.313" y="-366.3" font-family="Times,serif" font-size="14.00"> 7: [B4.6] (ImplicitCastExpr, LValueToRValue, int)</text>
<text text-anchor="start" x="394.313" y="-351.3" font-family="Times,serif" font-size="14.00"> 8: [B4.5] &gt; [B4.7]</text>
<text text-anchor="start" x="394.313" y="-336.3" font-family="Times,serif" font-size="14.00"> T: if [B4.8]</text>
</g>
<!-- Node0xb373840&#45;&gt;Node0xb373570 -->
<g id="edge5" class="edge"><title>Node0xb373840&#45;&gt;Node0xb373570</title>
<path fill="none" stroke="black" d="M505.189,-328.427C499.249,-318.986 493.204,-309.379 487.327,-300.04"/>
<polygon fill="black" stroke="black" points="490.273,-298.15 481.985,-291.55 484.348,-301.878 490.273,-298.15"/>
</g>
<!-- Node0xb373840&#45;&gt;Node0xb3736c8 -->
<g id="edge4" class="edge"><title>Node0xb373840&#45;&gt;Node0xb3736c8</title>
<path fill="none" stroke="black" d="M660.458,-328.427C674.34,-318.216 688.488,-307.81 702.154,-297.758"/>
<polygon fill="black" stroke="black" points="704.612,-300.294 710.594,-291.55 700.465,-294.655 704.612,-300.294"/>
</g>
<!-- Node0xb3739b8 -->
<g id="node6" class="node"><title>Node0xb3739b8</title>
<polygon fill="none" stroke="black" points="59.3134,-201 59.3134,-254 145.313,-254 145.313,-201 59.3134,-201"/>
<text text-anchor="start" x="67.3134" y="-238.8" font-family="Times,serif" font-size="14.00">[B5]</text>
<text text-anchor="start" x="67.3134" y="-223.8" font-family="Times,serif" font-size="14.00"> 1: i</text>
<text text-anchor="start" x="67.3134" y="-208.8" font-family="Times,serif" font-size="14.00"> 2: [B5.1]++</text>
</g>
<!-- Node0xb373be8 -->
<g id="node7" class="node"><title>Node0xb373be8</title>
<polygon fill="none" stroke="black" points="49.3134,-523.5 49.3134,-621.5 351.313,-621.5 351.313,-523.5 49.3134,-523.5"/>
<text text-anchor="start" x="57.3134" y="-606.3" font-family="Times,serif" font-size="14.00">[B7]</text>
<text text-anchor="start" x="57.3134" y="-591.3" font-family="Times,serif" font-size="14.00"> 1: i</text>
<text text-anchor="start" x="57.3134" y="-576.3" font-family="Times,serif" font-size="14.00"> 2: [B7.1] (ImplicitCastExpr, LValueToRValue, int)</text>
<text text-anchor="start" x="57.3134" y="-561.3" font-family="Times,serif" font-size="14.00"> 3: 5</text>
<text text-anchor="start" x="57.3134" y="-546.3" font-family="Times,serif" font-size="14.00"> 4: [B7.2] &lt; [B7.3]</text>
<text text-anchor="start" x="57.3134" y="-531.3" font-family="Times,serif" font-size="14.00"> T: for (...; [B7.4]; ...)</text>
</g>
<!-- Node0xb3739b8&#45;&gt;Node0xb373be8 -->
<g id="edge6" class="edge"><title>Node0xb3739b8&#45;&gt;Node0xb373be8</title>
<path fill="none" stroke="black" d="M73.8211,-254.112C55.5093,-272.591 33.3358,-299.259 23.3134,-328 0.0452434,-394.726 -14.385,-427.229 23.3134,-487 30.6221,-498.588 40.0055,-508.621 50.631,-517.301"/>
<polygon fill="black" stroke="black" points="48.5083,-520.084 58.5756,-523.385 52.7645,-514.526 48.5083,-520.084"/>
</g>
<!-- Node0xb373be8&#45;&gt;Node0xb373840 -->
<g id="edge9" class="edge"><title>Node0xb373be8&#45;&gt;Node0xb373840</title>
<path fill="none" stroke="black" d="M304.61,-523.476C327.406,-512.98 352.15,-501.587 376.904,-490.189"/>
<polygon fill="black" stroke="black" points="378.401,-493.353 386.02,-485.991 375.473,-486.994 378.401,-493.353"/>
</g>
<!-- Node0xb373a90 -->
<g id="node8" class="node"><title>Node0xb373a90</title>
<polygon fill="none" stroke="black" points="32.3134,-336 32.3134,-479 368.313,-479 368.313,-336 32.3134,-336"/>
<text text-anchor="start" x="40.3134" y="-463.8" font-family="Times,serif" font-size="14.00">[B6]</text>
<text text-anchor="start" x="40.3134" y="-448.8" font-family="Times,serif" font-size="14.00"> 1: i</text>
<text text-anchor="start" x="40.3134" y="-433.8" font-family="Times,serif" font-size="14.00"> 2: [B6.1] (ImplicitCastExpr, LValueToRValue, int)</text>
<text text-anchor="start" x="40.3134" y="-418.8" font-family="Times,serif" font-size="14.00"> 3: a</text>
<text text-anchor="start" x="40.3134" y="-403.8" font-family="Times,serif" font-size="14.00"> 4: [B6.3] (ImplicitCastExpr, ArrayToPointerDecay, int *)</text>
<text text-anchor="start" x="40.3134" y="-388.8" font-family="Times,serif" font-size="14.00"> 5: i</text>
<text text-anchor="start" x="40.3134" y="-373.8" font-family="Times,serif" font-size="14.00"> 6: [B6.5] (ImplicitCastExpr, LValueToRValue, int)</text>
<text text-anchor="start" x="40.3134" y="-358.8" font-family="Times,serif" font-size="14.00"> 7: [B6.4][[B6.6]]</text>
<text text-anchor="start" x="40.3134" y="-343.8" font-family="Times,serif" font-size="14.00"> 8: [B6.7] = [B6.2]</text>
</g>
<!-- Node0xb373be8&#45;&gt;Node0xb373a90 -->
<g id="edge8" class="edge"><title>Node0xb373be8&#45;&gt;Node0xb373a90</title>
<path fill="none" stroke="black" d="M200.313,-523.476C200.313,-512.727 200.313,-501.037 200.313,-489.364"/>
<polygon fill="black" stroke="black" points="203.814,-489.135 200.313,-479.135 196.814,-489.135 203.814,-489.135"/>
</g>
<!-- Node0xb373a90&#45;&gt;Node0xb3739b8 -->
<g id="edge7" class="edge"><title>Node0xb373a90&#45;&gt;Node0xb3739b8</title>
<path fill="none" stroke="black" d="M161.44,-335.894C147.723,-310.979 132.899,-284.053 121.525,-263.395"/>
<polygon fill="black" stroke="black" points="124.448,-261.446 116.559,-254.374 118.316,-264.822 124.448,-261.446"/>
</g>
<!-- Node0xb373ce0 -->
<g id="node9" class="node"><title>Node0xb373ce0</title>
<polygon fill="none" stroke="black" points="148.813,-658.5 148.813,-756.5 251.813,-756.5 251.813,-658.5 148.813,-658.5"/>
<text text-anchor="start" x="156.813" y="-741.3" font-family="Times,serif" font-size="14.00">[B8]</text>
<text text-anchor="start" x="156.813" y="-726.3" font-family="Times,serif" font-size="14.00"> 1: int a[5];</text>
<text text-anchor="start" x="156.813" y="-711.3" font-family="Times,serif" font-size="14.00"> 2: 0</text>
<text text-anchor="start" x="156.813" y="-696.3" font-family="Times,serif" font-size="14.00"> 3: int max = 0;</text>
<text text-anchor="start" x="156.813" y="-681.3" font-family="Times,serif" font-size="14.00"> 4: 0</text>
<text text-anchor="start" x="156.813" y="-666.3" font-family="Times,serif" font-size="14.00"> 5: int i = 0;</text>
</g>
<!-- Node0xb373ce0&#45;&gt;Node0xb373be8 -->
<g id="edge10" class="edge"><title>Node0xb373ce0&#45;&gt;Node0xb373be8</title>
<path fill="none" stroke="black" d="M200.313,-658.484C200.313,-649.927 200.313,-640.927 200.313,-632.114"/>
<polygon fill="black" stroke="black" points="203.814,-631.892 200.313,-621.892 196.814,-631.892 203.814,-631.892"/>
</g>
<!-- Node0xb373e58 -->
<g id="node10" class="node"><title>Node0xb373e58</title>
<polygon fill="none" stroke="black" points="150.813,-793.5 150.813,-829.5 249.813,-829.5 249.813,-793.5 150.813,-793.5"/>
<text text-anchor="start" x="158.813" y="-807.8" font-family="Times,serif" font-size="14.00">[B9 (ENTRY)]</text>
</g>
<!-- Node0xb373e58&#45;&gt;Node0xb373ce0 -->
<g id="edge11" class="edge"><title>Node0xb373e58&#45;&gt;Node0xb373ce0</title>
<path fill="none" stroke="black" d="M200.313,-793.197C200.313,-785.688 200.313,-776.415 200.313,-766.789"/>
<polygon fill="black" stroke="black" points="203.814,-766.688 200.313,-756.688 196.814,-766.688 203.814,-766.688"/>
</g>
</g>
</svg>
